<svg width="186" height="27" viewBox="0 0 186 27" fill="none" xmlns="http://www.w3.org/2000/svg">
<path fill-rule="evenodd" clip-rule="evenodd" d="M33.7481 6.7778C34.2832 6.7778 34.8028 6.8425 35.3025 6.96112C35.348 6.96171 35.3905 6.96231 35.4258 6.96231V5.86485H22.6668C22.4071 6.24105 22.1659 6.63104 21.9444 7.0336H31.9166C32.4984 6.86826 33.1125 6.7778 33.7481 6.7778V6.7778ZM15.5412 19.9513C15.4598 19.977 15.3485 19.9962 15.2162 20.0124C14.6644 20.1585 14.0844 20.2376 13.4865 20.2376C12.9089 20.2376 12.348 20.1651 11.8123 20.0279C11.7968 20.0279 11.7782 20.0273 11.7645 20.0273L11.619 21.1206H24.6761C24.9335 20.7432 25.1741 20.3544 25.3931 19.9513H15.5412ZM19.6104 16.4451H26.7024C26.788 16.0617 26.8569 15.6723 26.9083 15.2764H20.0473C19.9372 15.6831 19.7905 16.0743 19.6104 16.4451V16.4451ZM20.6147 10.5395C20.5279 10.9241 20.4578 11.3135 20.4046 11.7088H27.2728C27.3853 11.3021 27.5349 10.9115 27.7181 10.5395H20.6147ZM28.2897 1.18994C27.5529 1.51882 26.8502 1.90881 26.1901 2.3581H33.7729V1.18994H28.2897ZM24.7029 3.5274C24.3006 3.89282 23.9236 4.2846 23.5686 4.69615H33.7683V3.5274H24.7029ZM21.1807 24.627H13.5386V25.7957H19.1145C19.8399 25.4656 20.5313 25.075 21.1807 24.627V24.627ZM21.3746 8.20256C21.2112 8.58296 21.0664 8.97294 20.9377 9.37132H28.4583C28.7983 8.9352 29.1909 8.54282 29.6261 8.20256H21.3746ZM18.8887 17.6143C18.5547 18.0486 18.1686 18.441 17.7407 18.7831H25.958C26.1196 18.4021 26.2627 18.0121 26.3901 17.6143H18.8887ZM23.7763 22.2892C23.4238 22.7008 23.0479 23.092 22.6492 23.458H13.5395L13.0924 22.2892H23.7763Z" fill="#5AD3C0"/>
<path fill-rule="evenodd" clip-rule="evenodd" d="M33.7467 0C31.9451 0 30.2267 0.354041 28.6561 0.995629C31.5105 2.15959 33.8778 4.27306 35.3639 6.94664C38.3069 7.67209 40.4904 10.3301 40.4904 13.5003C40.4904 17.2276 37.4714 20.2504 33.7467 20.2504C30.022 20.2504 27.0024 17.2276 27.0024 13.5003H26.976C26.976 6.04446 20.9374 0 13.4886 0C6.03923 0 0 6.04446 0 13.5003C0 20.9561 6.03923 27 13.4886 27C15.2723 27 16.9739 26.6519 18.5331 26.0229C15.6475 24.8584 13.257 22.7269 11.7636 20.0276C8.8745 19.2638 6.74371 16.6322 6.74371 13.5003C6.74371 9.77238 9.76333 6.74955 13.4886 6.74955C17.2127 6.74955 20.2323 9.77238 20.2323 13.5003H20.2587C20.2587 20.9561 26.2979 27 33.7467 27C41.1955 27 47.2347 20.9561 47.2347 13.5003C47.2347 6.04446 41.1955 0 33.7467 0" fill="#4CE1C6"/>
<path fill-rule="evenodd" clip-rule="evenodd" d="M70.6262 17.9306C70.6262 18.6623 70.5432 19.4287 70.3773 20.23C70.2114 21.0313 69.9058 21.7673 69.4604 22.4379C69.015 23.1085 68.395 23.6616 67.6004 24.0971C66.8057 24.5326 65.7796 24.7503 64.5221 24.7503C62.9503 24.7503 61.6404 24.3453 60.5925 23.5353C59.5446 22.7253 58.846 21.6845 58.4967 20.4129L62.4525 19.0803C62.5748 19.5681 62.7975 19.96 63.1206 20.2561C63.4437 20.5523 63.841 20.7003 64.3126 20.7003C65.0461 20.7003 65.5308 20.4477 65.7665 19.9426C66.0023 19.4374 66.1202 18.7755 66.1202 17.9568V5.75453H70.6262V17.9306ZM78.7734 7.08705C78.7734 7.41801 78.7079 7.7272 78.5769 8.01463C78.4459 8.30205 78.2712 8.55027 78.0529 8.7593C77.8346 8.96833 77.5726 9.13382 77.267 9.25575C76.9614 9.37769 76.6426 9.43866 76.3108 9.43866C75.6122 9.43866 75.0271 9.20785 74.5555 8.74624C74.084 8.28462 73.8482 7.73156 73.8482 7.08705C73.8482 6.7735 73.9093 6.47302 74.0316 6.1856C74.1538 5.89817 74.3285 5.64995 74.5555 5.44092C74.7826 5.23189 75.0446 5.06205 75.3415 4.9314C75.6384 4.80076 75.9615 4.73544 76.3108 4.73544C76.6426 4.73544 76.9614 4.7964 77.267 4.91834C77.5726 5.04027 77.8346 5.20576 78.0529 5.41479C78.2712 5.62382 78.4459 5.87205 78.5769 6.15947C78.7079 6.44689 78.7734 6.75608 78.7734 7.08705ZM74.1646 24.2538V11.2415H78.461V24.2538H74.1646ZM95.6972 17.6956C95.6972 18.7581 95.5051 19.7205 95.1208 20.5828C94.7366 21.4451 94.2127 22.1767 93.549 22.7776C92.8853 23.3786 92.1169 23.8446 91.2436 24.1755C90.3703 24.5065 89.436 24.672 88.4405 24.672C87.4624 24.672 86.5324 24.5065 85.6504 24.1755C84.7684 23.8446 84 23.3786 83.345 22.7776C82.6901 22.1767 82.1705 21.4451 81.7863 20.5828C81.402 19.7205 81.2099 18.7581 81.2099 17.6956C81.2099 16.633 81.402 15.6749 81.7863 14.8214C82.1705 13.9678 82.6901 13.2449 83.345 12.6527C84 12.0604 84.7684 11.6075 85.6504 11.2939C86.5324 10.9804 87.4624 10.8236 88.4405 10.8236C89.436 10.8236 90.3703 10.9804 91.2436 11.2939C92.1169 11.6075 92.8853 12.0604 93.549 12.6527C94.2127 13.2449 94.7366 13.9678 95.1208 14.8214C95.5051 15.6749 95.6972 16.633 95.6972 17.6956ZM91.5575 17.6953C91.5575 17.2772 91.4877 16.8678 91.3479 16.4672C91.2082 16.0665 91.0074 15.7138 90.7454 15.409C90.4834 15.1041 90.1603 14.8559 89.7761 14.6643C89.3919 14.4727 88.9465 14.3769 88.44 14.3769C87.9335 14.3769 87.4882 14.4727 87.1039 14.6643C86.7197 14.8559 86.401 15.1041 86.1477 15.409C85.8945 15.7138 85.7024 16.0665 85.5714 16.4672C85.4404 16.8678 85.3749 17.2772 85.3749 17.6953C85.3749 18.1133 85.4404 18.5227 85.5714 18.9233C85.7024 19.324 85.8988 19.6854 86.1608 20.0077C86.4228 20.3299 86.7459 20.5869 87.1301 20.7785C87.5144 20.9701 87.9597 21.0659 88.4662 21.0659C88.9727 21.0659 89.4181 20.9701 89.8023 20.7785C90.1865 20.5869 90.5096 20.3299 90.7716 20.0077C91.0336 19.6854 91.2301 19.324 91.361 18.9233C91.492 18.5227 91.5575 18.1133 91.5575 17.6953ZM116.919 24.2539V16.5197H109.689V24.2539H105.209V5.75453H109.689V12.7571H116.919V5.75453H121.399V24.2539H116.919ZM133.971 16.2585C133.971 15.5791 133.757 14.9956 133.329 14.5078C132.902 14.0201 132.26 13.7762 131.404 13.7762C130.985 13.7762 130.601 13.8415 130.251 13.9722C129.902 14.1028 129.596 14.2814 129.334 14.5078C129.072 14.7343 128.863 14.9999 128.706 15.3048C128.548 15.6096 128.461 15.9275 128.444 16.2585H133.971ZM137.927 17.9046V18.4272C137.927 18.6014 137.918 18.7668 137.901 18.9236H128.443C128.478 19.2894 128.587 19.6204 128.771 19.9165C128.954 20.2126 129.19 20.4696 129.478 20.6873C129.766 20.9051 130.089 21.0749 130.447 21.1968C130.805 21.3188 131.177 21.3797 131.561 21.3797C132.242 21.3797 132.818 21.2535 133.29 21.0009C133.761 20.7483 134.146 20.4217 134.443 20.021L137.429 21.9023C136.818 22.7907 136.01 23.4744 135.006 23.9534C134.002 24.4325 132.836 24.672 131.508 24.672C130.53 24.672 129.605 24.5196 128.731 24.2147C127.858 23.9099 127.094 23.4657 126.439 22.8822C125.784 22.2986 125.269 21.5801 124.894 20.7265C124.518 19.873 124.33 18.8975 124.33 17.8001C124.33 16.7375 124.514 15.7751 124.88 14.9128C125.247 14.0506 125.745 13.3189 126.374 12.718C127.002 12.117 127.745 11.651 128.6 11.3201C129.456 10.9891 130.382 10.8236 131.377 10.8236C132.338 10.8236 133.22 10.9848 134.023 11.307C134.827 11.6293 135.517 12.0952 136.093 12.7049C136.669 13.3146 137.119 14.0549 137.442 14.9259C137.765 15.7968 137.927 16.7897 137.927 17.9046ZM148.302 18.5837H147.752C147.281 18.5837 146.805 18.6055 146.324 18.6491C145.844 18.6926 145.416 18.7754 145.041 18.8973C144.665 19.0192 144.355 19.1978 144.111 19.4329C143.866 19.6681 143.744 19.9773 143.744 20.3605C143.744 20.6044 143.801 20.8134 143.914 20.9876C144.028 21.1618 144.172 21.3012 144.346 21.4057C144.521 21.5102 144.722 21.5842 144.949 21.6278C145.176 21.6713 145.394 21.6931 145.604 21.6931C146.477 21.6931 147.145 21.4536 147.608 20.9746C148.071 20.4955 148.302 19.8467 148.302 19.0279V18.5837ZM140.418 13.0185C141.186 12.2868 142.081 11.7381 143.103 11.3723C144.125 11.0065 145.168 10.8236 146.233 10.8236C147.334 10.8236 148.264 10.9586 149.023 11.2286C149.783 11.4986 150.399 11.9167 150.87 12.4828C151.342 13.0489 151.687 13.7631 151.905 14.6254C152.124 15.4877 152.233 16.511 152.233 17.6956V24.2539H148.303V22.8691H148.224C147.893 23.4091 147.391 23.8272 146.718 24.1233C146.046 24.4194 145.317 24.5675 144.531 24.5675C144.007 24.5675 143.465 24.4978 142.906 24.3584C142.347 24.2191 141.837 23.9926 141.374 23.6791C140.911 23.3655 140.531 22.9475 140.234 22.4249C139.937 21.9023 139.789 21.2578 139.789 20.4914C139.789 19.5507 140.046 18.793 140.562 18.2181C141.077 17.6433 141.741 17.1991 142.553 16.8856C143.365 16.572 144.269 16.363 145.264 16.2585C146.26 16.1539 147.229 16.1017 148.172 16.1017V15.8926C148.172 15.2481 147.945 14.7735 147.491 14.4686C147.037 14.1638 146.478 14.0114 145.814 14.0114C145.203 14.0114 144.614 14.142 144.046 14.4033C143.478 14.6646 142.994 14.9781 142.592 15.3439L140.418 13.0185ZM155.481 24.2538V4.50024H159.83V24.2538H155.481ZM167.901 14.4556V19.4201C167.901 20.0298 168.019 20.487 168.255 20.7919C168.49 21.0967 168.914 21.2491 169.525 21.2491C169.735 21.2491 169.957 21.2317 170.193 21.1969C170.429 21.162 170.625 21.1098 170.783 21.0401L170.835 24.1756C170.538 24.2801 170.163 24.3715 169.709 24.4499C169.254 24.5283 168.8 24.5675 168.346 24.5675C167.473 24.5675 166.739 24.4586 166.146 24.2409C165.552 24.0232 165.076 23.7096 164.718 23.3003C164.36 22.8909 164.102 22.4032 163.945 21.837C163.788 21.2709 163.709 20.6395 163.709 19.9427V14.4556H161.613V11.2417H163.683V7.81882H167.901V11.2417H170.966V14.4556H167.901ZM181.573 24.2538V17.1989C181.573 16.8331 181.547 16.4847 181.494 16.1538C181.442 15.8228 181.342 15.531 181.193 15.2785C181.045 15.0259 180.848 14.8256 180.604 14.6775C180.359 14.5294 180.045 14.4554 179.661 14.4554C178.91 14.4554 178.333 14.721 177.932 15.2523C177.53 15.7836 177.329 16.4412 177.329 17.2251V24.2538H173.033V4.50024H177.329V12.8877H177.381C177.678 12.3651 178.15 11.8991 178.796 11.4898C179.442 11.0804 180.219 10.8757 181.128 10.8757C182.018 10.8757 182.765 11.0325 183.368 11.346C183.97 11.6596 184.459 12.0646 184.835 12.561C185.21 13.0575 185.481 13.628 185.647 14.2725C185.813 14.917 185.896 15.5615 185.896 16.206V24.2538H181.573Z" fill="#4CE1C6"/>
</svg>
